<svg width="469" height="48" viewBox="0 0 469 48" fill="none" xmlns="http://www.w3.org/2000/svg">
<rect x="338.187" width="130.435" height="48" rx="8" fill="#FF6E30"/>
<path d="M379.268 30.112C378.489 30.112 377.785 29.9787 377.156 29.712C376.537 29.4453 376.046 29.0613 375.684 28.56C375.321 28.0587 375.134 27.4667 375.124 26.784H377.524C377.556 27.2427 377.716 27.6053 378.004 27.872C378.302 28.1387 378.708 28.272 379.22 28.272C379.742 28.272 380.153 28.1493 380.452 27.904C380.75 27.648 380.9 27.3173 380.9 26.912C380.9 26.5813 380.798 26.3093 380.596 26.096C380.393 25.8827 380.137 25.7173 379.828 25.6C379.529 25.472 379.113 25.3333 378.58 25.184C377.854 24.9707 377.262 24.7627 376.804 24.56C376.356 24.3467 375.966 24.032 375.636 23.616C375.316 23.1893 375.156 22.624 375.156 21.92C375.156 21.2587 375.321 20.6827 375.652 20.192C375.982 19.7013 376.446 19.328 377.044 19.072C377.641 18.8053 378.324 18.672 379.092 18.672C380.244 18.672 381.177 18.9547 381.892 19.52C382.617 20.0747 383.017 20.8533 383.092 21.856H380.628C380.606 21.472 380.441 21.1573 380.132 20.912C379.833 20.656 379.433 20.528 378.932 20.528C378.494 20.528 378.142 20.64 377.876 20.864C377.62 21.088 377.492 21.4133 377.492 21.84C377.492 22.1387 377.588 22.3893 377.78 22.592C377.982 22.784 378.228 22.944 378.516 23.072C378.814 23.1893 379.23 23.328 379.764 23.488C380.489 23.7013 381.081 23.9147 381.54 24.128C381.998 24.3413 382.393 24.6613 382.724 25.088C383.054 25.5147 383.22 26.0747 383.22 26.768C383.22 27.3653 383.065 27.92 382.756 28.432C382.446 28.944 381.993 29.3547 381.396 29.664C380.798 29.9627 380.089 30.112 379.268 30.112ZM393.402 25.376C393.402 25.696 393.38 25.984 393.338 26.24H386.858C386.911 26.88 387.135 27.3813 387.53 27.744C387.924 28.1067 388.41 28.288 388.986 28.288C389.818 28.288 390.41 27.9307 390.762 27.216H393.178C392.922 28.0693 392.431 28.7733 391.706 29.328C390.98 29.872 390.09 30.144 389.034 30.144C388.18 30.144 387.412 29.9573 386.73 29.584C386.058 29.2 385.53 28.6613 385.146 27.968C384.772 27.2747 384.586 26.4747 384.586 25.568C384.586 24.6507 384.772 23.8453 385.146 23.152C385.519 22.4587 386.042 21.9253 386.714 21.552C387.386 21.1787 388.159 20.992 389.034 20.992C389.876 20.992 390.628 21.1733 391.29 21.536C391.962 21.8987 392.479 22.416 392.842 23.088C393.215 23.7493 393.402 24.512 393.402 25.376ZM391.082 24.736C391.071 24.16 390.863 23.7013 390.458 23.36C390.052 23.008 389.556 22.832 388.97 22.832C388.415 22.832 387.946 23.0027 387.562 23.344C387.188 23.6747 386.959 24.1387 386.874 24.736H391.082ZM394.461 25.536C394.461 24.64 394.637 23.8453 394.989 23.152C395.351 22.4587 395.837 21.9253 396.445 21.552C397.063 21.1787 397.751 20.992 398.509 20.992C399.17 20.992 399.746 21.1253 400.237 21.392C400.738 21.6587 401.138 21.9947 401.437 22.4V21.136H403.693V30H401.437V28.704C401.149 29.12 400.749 29.4667 400.237 29.744C399.735 30.0107 399.154 30.144 398.493 30.144C397.746 30.144 397.063 29.952 396.445 29.568C395.837 29.184 395.351 28.6453 394.989 27.952C394.637 27.248 394.461 26.4427 394.461 25.536ZM401.437 25.568C401.437 25.024 401.33 24.56 401.117 24.176C400.903 23.7813 400.615 23.4827 400.253 23.28C399.89 23.0667 399.501 22.96 399.085 22.96C398.669 22.96 398.285 23.0613 397.933 23.264C397.581 23.4667 397.293 23.7653 397.069 24.16C396.855 24.544 396.749 25.0027 396.749 25.536C396.749 26.0693 396.855 26.5387 397.069 26.944C397.293 27.3387 397.581 27.6427 397.933 27.856C398.295 28.0693 398.679 28.176 399.085 28.176C399.501 28.176 399.89 28.0747 400.253 27.872C400.615 27.6587 400.903 27.36 401.117 26.976C401.33 26.5813 401.437 26.112 401.437 25.568ZM408.12 22.512C408.408 22.0427 408.782 21.6747 409.24 21.408C409.71 21.1413 410.243 21.008 410.84 21.008V23.36H410.248C409.544 23.36 409.011 23.5253 408.648 23.856C408.296 24.1867 408.12 24.7627 408.12 25.584V30H405.88V21.136H408.12V22.512ZM411.773 25.568C411.773 24.6507 411.96 23.8507 412.333 23.168C412.707 22.4747 413.224 21.9413 413.885 21.568C414.547 21.184 415.304 20.992 416.157 20.992C417.256 20.992 418.163 21.2693 418.877 21.824C419.603 22.368 420.088 23.136 420.333 24.128H417.917C417.789 23.744 417.571 23.4453 417.261 23.232C416.963 23.008 416.589 22.896 416.141 22.896C415.501 22.896 414.995 23.1307 414.621 23.6C414.248 24.0587 414.061 24.7147 414.061 25.568C414.061 26.4107 414.248 27.0667 414.621 27.536C414.995 27.9947 415.501 28.224 416.141 28.224C417.048 28.224 417.64 27.8187 417.917 27.008H420.333C420.088 27.968 419.603 28.7307 418.877 29.296C418.152 29.8613 417.245 30.144 416.157 30.144C415.304 30.144 414.547 29.9573 413.885 29.584C413.224 29.2 412.707 28.6667 412.333 27.984C411.96 27.2907 411.773 26.4853 411.773 25.568ZM426.966 21.008C427.638 21.008 428.236 21.1573 428.758 21.456C429.281 21.744 429.686 22.176 429.974 22.752C430.273 23.3173 430.422 24 430.422 24.8V30H428.182V25.104C428.182 24.4 428.006 23.8613 427.654 23.488C427.302 23.104 426.822 22.912 426.214 22.912C425.596 22.912 425.105 23.104 424.742 23.488C424.39 23.8613 424.214 24.4 424.214 25.104V30H421.974V18.16H424.214V22.24C424.502 21.856 424.886 21.5573 425.366 21.344C425.846 21.12 426.38 21.008 426.966 21.008Z" fill="white"/>
<path d="M11 31C15.4183 31 19 27.4183 19 23C19 18.5817 15.4183 15 11 15C6.58172 15 3 18.5817 3 23C3 27.4183 6.58172 31 11 31Z" stroke="white" stroke-opacity="0.38" stroke-width="2" stroke-linecap="round" stroke-linejoin="round"/>
<path d="M21 32.9999L16.65 28.6499" stroke="white" stroke-opacity="0.38" stroke-width="2" stroke-linecap="round" stroke-linejoin="round"/>
<path d="M41.3839 21.378H39.7739V28H38.4999V21.378H37.5059V20.328H38.4999V19.782C38.4999 18.9233 38.7193 18.298 39.1579 17.906C39.6059 17.5047 40.3199 17.304 41.2999 17.304V18.368C40.7399 18.368 40.3433 18.48 40.1099 18.704C39.8859 18.9187 39.7739 19.278 39.7739 19.782V20.328H41.3839V21.378ZM43.5274 19.082C43.2847 19.082 43.0794 18.998 42.9114 18.83C42.7434 18.662 42.6594 18.4567 42.6594 18.214C42.6594 17.9713 42.7434 17.766 42.9114 17.598C43.0794 17.43 43.2847 17.346 43.5274 17.346C43.7607 17.346 43.9567 17.43 44.1154 17.598C44.2834 17.766 44.3674 17.9713 44.3674 18.214C44.3674 18.4567 44.2834 18.662 44.1154 18.83C43.9567 18.998 43.7607 19.082 43.5274 19.082ZM44.1434 20.328V28H42.8694V20.328H44.1434ZM50.0527 20.188C50.986 20.188 51.742 20.4727 52.3207 21.042C52.8993 21.602 53.1887 22.414 53.1887 23.478V28H51.9287V23.66C51.9287 22.8947 51.7373 22.3113 51.3547 21.91C50.972 21.4993 50.4493 21.294 49.7867 21.294C49.1147 21.294 48.578 21.504 48.1767 21.924C47.7847 22.344 47.5887 22.9553 47.5887 23.758V28H46.3147V20.328H47.5887V21.42C47.8407 21.028 48.1813 20.7247 48.6107 20.51C49.0493 20.2953 49.53 20.188 50.0527 20.188ZM54.7938 24.136C54.7938 23.352 54.9524 22.666 55.2698 22.078C55.5871 21.4807 56.0211 21.0187 56.5718 20.692C57.1318 20.3653 57.7571 20.202 58.4478 20.202C59.0451 20.202 59.6004 20.342 60.1138 20.622C60.6271 20.8927 61.0191 21.252 61.2898 21.7V17.64H62.5778V28H61.2898V26.558C61.0378 27.0153 60.6644 27.3933 60.1698 27.692C59.6751 27.9813 59.0964 28.126 58.4338 28.126C57.7524 28.126 57.1318 27.958 56.5718 27.622C56.0211 27.286 55.5871 26.8147 55.2698 26.208C54.9524 25.6013 54.7938 24.9107 54.7938 24.136ZM61.2898 24.15C61.2898 23.5713 61.1731 23.0673 60.9398 22.638C60.7064 22.2087 60.3891 21.882 59.9878 21.658C59.5958 21.4247 59.1618 21.308 58.6858 21.308C58.2098 21.308 57.7758 21.42 57.3838 21.644C56.9918 21.868 56.6791 22.1947 56.4458 22.624C56.2124 23.0533 56.0958 23.5573 56.0958 24.136C56.0958 24.724 56.2124 25.2373 56.4458 25.676C56.6791 26.1053 56.9918 26.4367 57.3838 26.67C57.7758 26.894 58.2098 27.006 58.6858 27.006C59.1618 27.006 59.5958 26.894 59.9878 26.67C60.3891 26.4367 60.7064 26.1053 60.9398 25.676C61.1731 25.2373 61.2898 24.7287 61.2898 24.15ZM77.6891 20.188C78.2865 20.188 78.8185 20.314 79.2851 20.566C79.7518 20.8087 80.1205 21.1773 80.3911 21.672C80.6618 22.1667 80.7971 22.7687 80.7971 23.478V28H79.5371V23.66C79.5371 22.8947 79.3458 22.3113 78.9631 21.91C78.5898 21.4993 78.0811 21.294 77.4371 21.294C76.7745 21.294 76.2471 21.5087 75.8551 21.938C75.4631 22.358 75.2671 22.9693 75.2671 23.772V28H74.0071V23.66C74.0071 22.8947 73.8158 22.3113 73.4331 21.91C73.0598 21.4993 72.5511 21.294 71.9071 21.294C71.2445 21.294 70.7171 21.5087 70.3251 21.938C69.9331 22.358 69.7371 22.9693 69.7371 23.772V28H68.4631V20.328H69.7371V21.434C69.9891 21.0327 70.3251 20.7247 70.7451 20.51C71.1745 20.2953 71.6458 20.188 72.1591 20.188C72.8031 20.188 73.3725 20.3327 73.8671 20.622C74.3618 20.9113 74.7305 21.336 74.9731 21.896C75.1878 21.3547 75.5425 20.9347 76.0371 20.636C76.5318 20.3373 77.0825 20.188 77.6891 20.188ZM86.2329 28.126C85.5143 28.126 84.8609 27.9627 84.2729 27.636C83.6943 27.3093 83.2369 26.8473 82.9009 26.25C82.5743 25.6433 82.4109 24.9433 82.4109 24.15C82.4109 23.366 82.5789 22.6753 82.9149 22.078C83.2603 21.4713 83.7269 21.0093 84.3149 20.692C84.9029 20.3653 85.5609 20.202 86.2889 20.202C87.0169 20.202 87.6749 20.3653 88.2629 20.692C88.8509 21.0093 89.3129 21.4667 89.6489 22.064C89.9943 22.6613 90.1669 23.3567 90.1669 24.15C90.1669 24.9433 89.9896 25.6433 89.6349 26.25C89.2896 26.8473 88.8183 27.3093 88.2209 27.636C87.6236 27.9627 86.9609 28.126 86.2329 28.126ZM86.2329 27.006C86.6903 27.006 87.1196 26.8987 87.5209 26.684C87.9223 26.4693 88.2443 26.1473 88.4869 25.718C88.7389 25.2887 88.8649 24.766 88.8649 24.15C88.8649 23.534 88.7436 23.0113 88.5009 22.582C88.2583 22.1527 87.9409 21.8353 87.5489 21.63C87.1569 21.4153 86.7323 21.308 86.2749 21.308C85.8083 21.308 85.3789 21.4153 84.9869 21.63C84.6043 21.8353 84.2963 22.1527 84.0629 22.582C83.8296 23.0113 83.7129 23.534 83.7129 24.15C83.7129 24.7753 83.8249 25.3027 84.0489 25.732C84.2823 26.1613 84.5903 26.4833 84.9729 26.698C85.3556 26.9033 85.7756 27.006 86.2329 27.006ZM93.116 21.574C93.34 21.1353 93.6574 20.7947 94.068 20.552C94.488 20.3093 94.9967 20.188 95.594 20.188V21.504H95.258C93.83 21.504 93.116 22.2787 93.116 23.828V28H91.842V20.328H93.116V21.574ZM104.065 23.87C104.065 24.1127 104.051 24.3693 104.023 24.64H97.8907C97.9373 25.396 98.194 25.9887 98.6607 26.418C99.1367 26.838 99.7107 27.048 100.383 27.048C100.933 27.048 101.391 26.922 101.755 26.67C102.128 26.4087 102.389 26.0633 102.539 25.634H103.911C103.705 26.3713 103.295 26.9733 102.679 27.44C102.063 27.8973 101.297 28.126 100.383 28.126C99.6547 28.126 99.0013 27.9627 98.4227 27.636C97.8533 27.3093 97.4053 26.8473 97.0787 26.25C96.752 25.6433 96.5887 24.9433 96.5887 24.15C96.5887 23.3567 96.7473 22.6613 97.0647 22.064C97.382 21.4667 97.8253 21.0093 98.3947 20.692C98.9733 20.3653 99.636 20.202 100.383 20.202C101.111 20.202 101.755 20.3607 102.315 20.678C102.875 20.9953 103.304 21.434 103.603 21.994C103.911 22.5447 104.065 23.17 104.065 23.87ZM102.749 23.604C102.749 23.1187 102.641 22.7033 102.427 22.358C102.212 22.0033 101.918 21.7373 101.545 21.56C101.181 21.3733 100.775 21.28 100.327 21.28C99.6827 21.28 99.132 21.4853 98.6747 21.896C98.2267 22.3067 97.97 22.876 97.9047 23.604H102.749ZM111.033 21.378V25.9C111.033 26.2733 111.112 26.5393 111.271 26.698C111.429 26.8473 111.705 26.922 112.097 26.922H113.035V28H111.887C111.177 28 110.645 27.8367 110.291 27.51C109.936 27.1833 109.759 26.6467 109.759 25.9V21.378H108.765V20.328H109.759V18.396H111.033V20.328H113.035V21.378H111.033ZM118.386 20.188C118.965 20.188 119.488 20.314 119.954 20.566C120.421 20.8087 120.785 21.1773 121.046 21.672C121.317 22.1667 121.452 22.7687 121.452 23.478V28H120.192V23.66C120.192 22.8947 120.001 22.3113 119.618 21.91C119.236 21.4993 118.713 21.294 118.05 21.294C117.378 21.294 116.842 21.504 116.44 21.924C116.048 22.344 115.852 22.9553 115.852 23.758V28H114.578V17.64H115.852V21.42C116.104 21.028 116.45 20.7247 116.888 20.51C117.336 20.2953 117.836 20.188 118.386 20.188ZM123.057 24.136C123.057 23.352 123.216 22.666 123.533 22.078C123.851 21.4807 124.285 21.0187 124.835 20.692C125.395 20.3653 126.016 20.202 126.697 20.202C127.369 20.202 127.953 20.3467 128.447 20.636C128.942 20.9253 129.311 21.2893 129.553 21.728V20.328H130.841V28H129.553V26.572C129.301 27.02 128.923 27.3933 128.419 27.692C127.925 27.9813 127.346 28.126 126.683 28.126C126.002 28.126 125.386 27.958 124.835 27.622C124.285 27.286 123.851 26.8147 123.533 26.208C123.216 25.6013 123.057 24.9107 123.057 24.136ZM129.553 24.15C129.553 23.5713 129.437 23.0673 129.203 22.638C128.97 22.2087 128.653 21.882 128.251 21.658C127.859 21.4247 127.425 21.308 126.949 21.308C126.473 21.308 126.039 21.42 125.647 21.644C125.255 21.868 124.943 22.1947 124.709 22.624C124.476 23.0533 124.359 23.5573 124.359 24.136C124.359 24.724 124.476 25.2373 124.709 25.676C124.943 26.1053 125.255 26.4367 125.647 26.67C126.039 26.894 126.473 27.006 126.949 27.006C127.425 27.006 127.859 26.894 128.251 26.67C128.653 26.4367 128.97 26.1053 129.203 25.676C129.437 25.2373 129.553 24.7287 129.553 24.15ZM136.732 20.188C137.666 20.188 138.422 20.4727 139 21.042C139.579 21.602 139.868 22.414 139.868 23.478V28H138.608V23.66C138.608 22.8947 138.417 22.3113 138.034 21.91C137.652 21.4993 137.129 21.294 136.466 21.294C135.794 21.294 135.258 21.504 134.856 21.924C134.464 22.344 134.268 22.9553 134.268 23.758V28H132.994V20.328H134.268V21.42C134.52 21.028 134.861 20.7247 135.29 20.51C135.729 20.2953 136.21 20.188 136.732 20.188ZM145.164 25.746V24.78L150.078 17.976H151.604V24.64H153.004V25.746H151.604V28H150.344V25.746H145.164ZM150.4 19.306L146.634 24.64H150.4V19.306ZM154.249 20.426C154.314 19.5673 154.645 18.8953 155.243 18.41C155.84 17.9247 156.615 17.682 157.567 17.682C158.201 17.682 158.747 17.7987 159.205 18.032C159.671 18.256 160.021 18.564 160.255 18.956C160.497 19.348 160.619 19.7913 160.619 20.286C160.619 20.8647 160.451 21.364 160.115 21.784C159.788 22.204 159.359 22.4747 158.827 22.596V22.666C159.433 22.8153 159.914 23.1093 160.269 23.548C160.623 23.9867 160.801 24.5607 160.801 25.27C160.801 25.802 160.679 26.2827 160.437 26.712C160.194 27.132 159.83 27.4633 159.345 27.706C158.859 27.9487 158.276 28.07 157.595 28.07C156.605 28.07 155.793 27.8133 155.159 27.3C154.524 26.7773 154.169 26.04 154.095 25.088H155.327C155.392 25.648 155.621 26.1053 156.013 26.46C156.405 26.8147 156.927 26.992 157.581 26.992C158.234 26.992 158.729 26.824 159.065 26.488C159.41 26.1427 159.583 25.6993 159.583 25.158C159.583 24.458 159.349 23.954 158.883 23.646C158.416 23.338 157.711 23.184 156.769 23.184H156.447V22.12H156.783C157.641 22.1107 158.29 21.9707 158.729 21.7C159.167 21.42 159.387 20.9907 159.387 20.412C159.387 19.9173 159.223 19.5207 158.897 19.222C158.579 18.9233 158.122 18.774 157.525 18.774C156.946 18.774 156.479 18.9233 156.125 19.222C155.77 19.5207 155.56 19.922 155.495 20.426H154.249ZM162.521 22.834C162.521 21.2287 162.782 19.978 163.305 19.082C163.827 18.1767 164.742 17.724 166.049 17.724C167.346 17.724 168.256 18.1767 168.779 19.082C169.301 19.978 169.563 21.2287 169.563 22.834C169.563 24.4673 169.301 25.7367 168.779 26.642C168.256 27.5473 167.346 28 166.049 28C164.742 28 163.827 27.5473 163.305 26.642C162.782 25.7367 162.521 24.4673 162.521 22.834ZM168.303 22.834C168.303 22.022 168.247 21.336 168.135 20.776C168.032 20.2067 167.813 19.7493 167.477 19.404C167.15 19.0587 166.674 18.886 166.049 18.886C165.414 18.886 164.929 19.0587 164.593 19.404C164.266 19.7493 164.047 20.2067 163.935 20.776C163.832 21.336 163.781 22.022 163.781 22.834C163.781 23.674 163.832 24.3787 163.935 24.948C164.047 25.5173 164.266 25.9747 164.593 26.32C164.929 26.6653 165.414 26.838 166.049 26.838C166.674 26.838 167.15 26.6653 167.477 26.32C167.813 25.9747 168.032 25.5173 168.135 24.948C168.247 24.3787 168.303 23.674 168.303 22.834ZM178.802 23.422H175.82V26.446H174.63V23.422H171.662V22.344H174.63V19.306H175.82V22.344H178.802V23.422ZM186.365 21.378V25.9C186.365 26.2733 186.444 26.5393 186.603 26.698C186.761 26.8473 187.037 26.922 187.429 26.922H188.367V28H187.219C186.509 28 185.977 27.8367 185.623 27.51C185.268 27.1833 185.091 26.6467 185.091 25.9V21.378H184.097V20.328H185.091V18.396H186.365V20.328H188.367V21.378H186.365ZM193.256 28.126C192.538 28.126 191.884 27.9627 191.296 27.636C190.718 27.3093 190.26 26.8473 189.924 26.25C189.598 25.6433 189.434 24.9433 189.434 24.15C189.434 23.366 189.602 22.6753 189.938 22.078C190.284 21.4713 190.75 21.0093 191.338 20.692C191.926 20.3653 192.584 20.202 193.312 20.202C194.04 20.202 194.698 20.3653 195.286 20.692C195.874 21.0093 196.336 21.4667 196.672 22.064C197.018 22.6613 197.19 23.3567 197.19 24.15C197.19 24.9433 197.013 25.6433 196.658 26.25C196.313 26.8473 195.842 27.3093 195.244 27.636C194.647 27.9627 193.984 28.126 193.256 28.126ZM193.256 27.006C193.714 27.006 194.143 26.8987 194.544 26.684C194.946 26.4693 195.268 26.1473 195.51 25.718C195.762 25.2887 195.888 24.766 195.888 24.15C195.888 23.534 195.767 23.0113 195.524 22.582C195.282 22.1527 194.964 21.8353 194.572 21.63C194.18 21.4153 193.756 21.308 193.298 21.308C192.832 21.308 192.402 21.4153 192.01 21.63C191.628 21.8353 191.32 22.1527 191.086 22.582C190.853 23.0113 190.736 23.534 190.736 24.15C190.736 24.7753 190.848 25.3027 191.072 25.732C191.306 26.1613 191.614 26.4833 191.996 26.698C192.379 26.9033 192.799 27.006 193.256 27.006ZM202.211 28.126C201.493 28.126 200.839 27.9627 200.251 27.636C199.673 27.3093 199.215 26.8473 198.879 26.25C198.553 25.6433 198.389 24.9433 198.389 24.15C198.389 23.366 198.557 22.6753 198.893 22.078C199.239 21.4713 199.705 21.0093 200.293 20.692C200.881 20.3653 201.539 20.202 202.267 20.202C202.995 20.202 203.653 20.3653 204.241 20.692C204.829 21.0093 205.291 21.4667 205.627 22.064C205.973 22.6613 206.145 23.3567 206.145 24.15C206.145 24.9433 205.968 25.6433 205.613 26.25C205.268 26.8473 204.797 27.3093 204.199 27.636C203.602 27.9627 202.939 28.126 202.211 28.126ZM202.211 27.006C202.669 27.006 203.098 26.8987 203.499 26.684C203.901 26.4693 204.223 26.1473 204.465 25.718C204.717 25.2887 204.843 24.766 204.843 24.15C204.843 23.534 204.722 23.0113 204.479 22.582C204.237 22.1527 203.919 21.8353 203.527 21.63C203.135 21.4153 202.711 21.308 202.253 21.308C201.787 21.308 201.357 21.4153 200.965 21.63C200.583 21.8353 200.275 22.1527 200.041 22.582C199.808 23.0113 199.691 23.534 199.691 24.15C199.691 24.7753 199.803 25.3027 200.027 25.732C200.261 26.1613 200.569 26.4833 200.951 26.698C201.334 26.9033 201.754 27.006 202.211 27.006ZM209.095 17.64V28H207.821V17.64H209.095ZM213.982 28.126C213.394 28.126 212.867 28.028 212.4 27.832C211.933 27.6267 211.565 27.3467 211.294 26.992C211.023 26.628 210.874 26.2127 210.846 25.746H212.162C212.199 26.1287 212.377 26.4413 212.694 26.684C213.021 26.9267 213.445 27.048 213.968 27.048C214.453 27.048 214.836 26.9407 215.116 26.726C215.396 26.5113 215.536 26.2407 215.536 25.914C215.536 25.578 215.387 25.3307 215.088 25.172C214.789 25.004 214.327 24.8407 213.702 24.682C213.133 24.5327 212.666 24.3833 212.302 24.234C211.947 24.0753 211.639 23.8467 211.378 23.548C211.126 23.24 211 22.8387 211 22.344C211 21.952 211.117 21.5927 211.35 21.266C211.583 20.9393 211.915 20.6827 212.344 20.496C212.773 20.3 213.263 20.202 213.814 20.202C214.663 20.202 215.349 20.4167 215.872 20.846C216.395 21.2753 216.675 21.8633 216.712 22.61H215.438C215.41 22.2087 215.247 21.8867 214.948 21.644C214.659 21.4013 214.267 21.28 213.772 21.28C213.315 21.28 212.951 21.378 212.68 21.574C212.409 21.77 212.274 22.0267 212.274 22.344C212.274 22.596 212.353 22.806 212.512 22.974C212.68 23.1327 212.885 23.2633 213.128 23.366C213.38 23.4593 213.725 23.5667 214.164 23.688C214.715 23.8373 215.163 23.9867 215.508 24.136C215.853 24.276 216.147 24.4907 216.39 24.78C216.642 25.0693 216.773 25.4473 216.782 25.914C216.782 26.334 216.665 26.712 216.432 27.048C216.199 27.384 215.867 27.65 215.438 27.846C215.018 28.0327 214.533 28.126 213.982 28.126ZM218.986 28.084C218.744 28.084 218.538 28 218.37 27.832C218.202 27.664 218.118 27.4587 218.118 27.216C218.118 26.9733 218.202 26.768 218.37 26.6C218.538 26.432 218.744 26.348 218.986 26.348C219.22 26.348 219.416 26.432 219.574 26.6C219.742 26.768 219.826 26.9733 219.826 27.216C219.826 27.4587 219.742 27.664 219.574 27.832C219.416 28 219.22 28.084 218.986 28.084ZM221.926 28.084C221.683 28.084 221.478 28 221.31 27.832C221.142 27.664 221.058 27.4587 221.058 27.216C221.058 26.9733 221.142 26.768 221.31 26.6C221.478 26.432 221.683 26.348 221.926 26.348C222.159 26.348 222.355 26.432 222.514 26.6C222.682 26.768 222.766 26.9733 222.766 27.216C222.766 27.4587 222.682 27.664 222.514 27.832C222.355 28 222.159 28.084 221.926 28.084ZM224.865 28.084C224.623 28.084 224.417 28 224.249 27.832C224.081 27.664 223.997 27.4587 223.997 27.216C223.997 26.9733 224.081 26.768 224.249 26.6C224.417 26.432 224.623 26.348 224.865 26.348C225.099 26.348 225.295 26.432 225.453 26.6C225.621 26.768 225.705 26.9733 225.705 27.216C225.705 27.4587 225.621 27.664 225.453 27.832C225.295 28 225.099 28.084 224.865 28.084Z" fill="white" fill-opacity="0.38"/>
<line x1="37.9339" y1="15.75" x2="37.9339" y2="30.25" stroke="#837A93" stroke-width="1.5" stroke-linecap="round"/>
</svg>
